<svg xmlns="http://www.w3.org/2000/svg" viewBox="0 0 18 18"><defs><style>.cls-1{fill-rule:evenodd;}</style></defs><g id="Capa_2" data-name="Capa 2"><g id="Capa_1-2" data-name="Capa 1"><path d="M6.34,1.69A12,12,0,0,1,9,1.38.69.69,0,0,0,9,0,12.89,12.89,0,0,0,6,.34,7.67,7.67,0,0,0,.34,6,13.24,13.24,0,0,0,.34,12,7.67,7.67,0,0,0,6,17.66a13.24,13.24,0,0,0,5.94,0A7.67,7.67,0,0,0,17.66,12,12.89,12.89,0,0,0,18,9a.69.69,0,1,0-1.38,0,12,12,0,0,1-.31,2.66,6.26,6.26,0,0,1-4.65,4.65,11.66,11.66,0,0,1-5.32,0,6.26,6.26,0,0,1-4.65-4.65,11.66,11.66,0,0,1,0-5.32A6.26,6.26,0,0,1,6.34,1.69Z"/><path class="cls-1" d="M15.25,4.84A3.77,3.77,0,0,1,14,4a3.77,3.77,0,0,1-.84-1.25L10.77,5.13A10.67,10.67,0,0,0,8,10a10.67,10.67,0,0,0,4.87-2.77Zm-2-4.15A2.9,2.9,0,0,1,15.13,0,2.86,2.86,0,0,1,18,2.87a2.9,2.9,0,0,1-.69,1.87l-.15.16L13.85,8.21A12,12,0,0,1,8.3,11.35l-.64.16a1,1,0,0,1-1.17-1.17l.16-.64A12,12,0,0,1,9.79,4.15L13.1.84Z"/></g></g></svg>